<mxfile host="app.diagrams.net" modified="2023-12-23T02:37:42.989Z" agent="Mozilla/5.0 (Windows NT 10.0; Win64; x64) AppleWebKit/537.36 (KHTML, like Gecko) Chrome/112.0.0.0 Safari/537.36 Edg/112.0.1722.58" etag="oxDBJET8K4lojJKRQT4_" version="22.1.11" type="github">
  <diagram name="Page-1" id="e7e014a7-5840-1c2e-5031-d8a46d1fe8dd">
    <mxGraphModel dx="1032" dy="1377" grid="1" gridSize="10" guides="1" tooltips="1" connect="1" arrows="1" fold="1" page="1" pageScale="1" pageWidth="1169" pageHeight="826" background="none" math="0" shadow="0">
      <root>
        <mxCell id="0" />
        <mxCell id="1" parent="0" />
        <mxCell id="PqaX6BdixIU43DIzbj3k-41" value="用户表&lt;br&gt;user" style="rounded=0;whiteSpace=wrap;html=1;" vertex="1" parent="1">
          <mxGeometry x="460" y="-700" width="120" height="60" as="geometry" />
        </mxCell>
        <mxCell id="PqaX6BdixIU43DIzbj3k-46" style="edgeStyle=orthogonalEdgeStyle;rounded=0;orthogonalLoop=1;jettySize=auto;html=1;exitX=0.5;exitY=0;exitDx=0;exitDy=0;entryX=0.5;entryY=1;entryDx=0;entryDy=0;" edge="1" parent="1" source="PqaX6BdixIU43DIzbj3k-42" target="PqaX6BdixIU43DIzbj3k-41">
          <mxGeometry relative="1" as="geometry" />
        </mxCell>
        <mxCell id="PqaX6BdixIU43DIzbj3k-49" value="uid" style="edgeLabel;html=1;align=center;verticalAlign=middle;resizable=0;points=[];" vertex="1" connectable="0" parent="PqaX6BdixIU43DIzbj3k-46">
          <mxGeometry x="-0.0644" y="-1" relative="1" as="geometry">
            <mxPoint as="offset" />
          </mxGeometry>
        </mxCell>
        <mxCell id="PqaX6BdixIU43DIzbj3k-42" value="网站收藏分组&lt;br&gt;webGroup" style="rounded=0;whiteSpace=wrap;html=1;" vertex="1" parent="1">
          <mxGeometry x="240" y="-560" width="120" height="60" as="geometry" />
        </mxCell>
        <mxCell id="PqaX6BdixIU43DIzbj3k-45" style="edgeStyle=orthogonalEdgeStyle;rounded=0;orthogonalLoop=1;jettySize=auto;html=1;exitX=0.5;exitY=0;exitDx=0;exitDy=0;entryX=0.5;entryY=1;entryDx=0;entryDy=0;" edge="1" parent="1" source="PqaX6BdixIU43DIzbj3k-43" target="PqaX6BdixIU43DIzbj3k-41">
          <mxGeometry relative="1" as="geometry" />
        </mxCell>
        <mxCell id="PqaX6BdixIU43DIzbj3k-48" value="uid" style="edgeLabel;html=1;align=center;verticalAlign=middle;resizable=0;points=[];" vertex="1" connectable="0" parent="PqaX6BdixIU43DIzbj3k-45">
          <mxGeometry x="0.074" y="2" relative="1" as="geometry">
            <mxPoint as="offset" />
          </mxGeometry>
        </mxCell>
        <mxCell id="PqaX6BdixIU43DIzbj3k-43" value="网站收藏&lt;br&gt;webCollect" style="rounded=0;whiteSpace=wrap;html=1;" vertex="1" parent="1">
          <mxGeometry x="680" y="-560" width="120" height="60" as="geometry" />
        </mxCell>
        <mxCell id="PqaX6BdixIU43DIzbj3k-53" style="edgeStyle=orthogonalEdgeStyle;rounded=0;orthogonalLoop=1;jettySize=auto;html=1;exitX=0;exitY=0.5;exitDx=0;exitDy=0;" edge="1" parent="1" source="PqaX6BdixIU43DIzbj3k-50" target="PqaX6BdixIU43DIzbj3k-42">
          <mxGeometry relative="1" as="geometry" />
        </mxCell>
        <mxCell id="PqaX6BdixIU43DIzbj3k-55" value="wgId" style="edgeLabel;html=1;align=center;verticalAlign=middle;resizable=0;points=[];" vertex="1" connectable="0" parent="PqaX6BdixIU43DIzbj3k-53">
          <mxGeometry x="0.176" y="2" relative="1" as="geometry">
            <mxPoint as="offset" />
          </mxGeometry>
        </mxCell>
        <mxCell id="PqaX6BdixIU43DIzbj3k-54" style="edgeStyle=orthogonalEdgeStyle;rounded=0;orthogonalLoop=1;jettySize=auto;html=1;exitX=1;exitY=0.5;exitDx=0;exitDy=0;entryX=0;entryY=0.5;entryDx=0;entryDy=0;" edge="1" parent="1" source="PqaX6BdixIU43DIzbj3k-50" target="PqaX6BdixIU43DIzbj3k-43">
          <mxGeometry relative="1" as="geometry" />
        </mxCell>
        <mxCell id="PqaX6BdixIU43DIzbj3k-56" value="wcId" style="edgeLabel;html=1;align=center;verticalAlign=middle;resizable=0;points=[];" vertex="1" connectable="0" parent="PqaX6BdixIU43DIzbj3k-54">
          <mxGeometry x="0.224" y="2" relative="1" as="geometry">
            <mxPoint as="offset" />
          </mxGeometry>
        </mxCell>
        <mxCell id="PqaX6BdixIU43DIzbj3k-50" value="网站收藏关联组&lt;br&gt;webCollectGroup" style="rounded=0;whiteSpace=wrap;html=1;" vertex="1" parent="1">
          <mxGeometry x="460" y="-560" width="120" height="60" as="geometry" />
        </mxCell>
      </root>
    </mxGraphModel>
  </diagram>
</mxfile>
